<mxfile host="app.diagrams.net" modified="2020-10-02T17:15:36.344Z" agent="5.0 (Windows NT 10.0; Win64; x64) AppleWebKit/537.36 (KHTML, like Gecko) Chrome/85.0.4183.121 Safari/537.36" etag="jAvAHdCUDMqkCkMOm3ZC" version="13.7.7" type="github">
  <diagram id="C5RBs43oDa-KdzZeNtuy" name="Page-1">
    <mxGraphModel dx="868" dy="490" grid="1" gridSize="10" guides="1" tooltips="1" connect="1" arrows="1" fold="1" page="1" pageScale="1" pageWidth="827" pageHeight="1169" math="0" shadow="0">
      <root>
        <mxCell id="WIyWlLk6GJQsqaUBKTNV-0" />
        <mxCell id="WIyWlLk6GJQsqaUBKTNV-1" parent="WIyWlLk6GJQsqaUBKTNV-0" />
        <mxCell id="zLQN0CDYQ3AFilHnqqL1-2" value="" style="edgeStyle=orthogonalEdgeStyle;rounded=0;orthogonalLoop=1;jettySize=auto;html=1;" edge="1" parent="WIyWlLk6GJQsqaUBKTNV-1" source="zLQN0CDYQ3AFilHnqqL1-0" target="zLQN0CDYQ3AFilHnqqL1-1">
          <mxGeometry relative="1" as="geometry" />
        </mxCell>
        <mxCell id="zLQN0CDYQ3AFilHnqqL1-0" value="Generate Grant token&amp;nbsp;" style="rounded=0;whiteSpace=wrap;html=1;" vertex="1" parent="WIyWlLk6GJQsqaUBKTNV-1">
          <mxGeometry x="240" y="40" width="120" height="60" as="geometry" />
        </mxCell>
        <mxCell id="zLQN0CDYQ3AFilHnqqL1-4" value="" style="edgeStyle=orthogonalEdgeStyle;rounded=0;orthogonalLoop=1;jettySize=auto;html=1;" edge="1" parent="WIyWlLk6GJQsqaUBKTNV-1" source="zLQN0CDYQ3AFilHnqqL1-1" target="zLQN0CDYQ3AFilHnqqL1-5">
          <mxGeometry relative="1" as="geometry">
            <mxPoint x="300" y="320.0000000000001" as="targetPoint" />
          </mxGeometry>
        </mxCell>
        <mxCell id="zLQN0CDYQ3AFilHnqqL1-1" value="Extract the code&amp;nbsp;" style="rounded=0;whiteSpace=wrap;html=1;" vertex="1" parent="WIyWlLk6GJQsqaUBKTNV-1">
          <mxGeometry x="240" y="180" width="120" height="60" as="geometry" />
        </mxCell>
        <mxCell id="zLQN0CDYQ3AFilHnqqL1-8" value="" style="edgeStyle=orthogonalEdgeStyle;rounded=0;orthogonalLoop=1;jettySize=auto;html=1;" edge="1" parent="WIyWlLk6GJQsqaUBKTNV-1" source="zLQN0CDYQ3AFilHnqqL1-5" target="zLQN0CDYQ3AFilHnqqL1-7">
          <mxGeometry relative="1" as="geometry" />
        </mxCell>
        <mxCell id="zLQN0CDYQ3AFilHnqqL1-12" value="" style="edgeStyle=orthogonalEdgeStyle;rounded=0;orthogonalLoop=1;jettySize=auto;html=1;" edge="1" parent="WIyWlLk6GJQsqaUBKTNV-1" source="zLQN0CDYQ3AFilHnqqL1-5" target="zLQN0CDYQ3AFilHnqqL1-11">
          <mxGeometry relative="1" as="geometry" />
        </mxCell>
        <mxCell id="zLQN0CDYQ3AFilHnqqL1-5" value="" style="rhombus;whiteSpace=wrap;html=1;" vertex="1" parent="WIyWlLk6GJQsqaUBKTNV-1">
          <mxGeometry x="260" y="280.0000000000001" width="80" height="80" as="geometry" />
        </mxCell>
        <mxCell id="zLQN0CDYQ3AFilHnqqL1-6" value="First Time user&amp;nbsp;" style="text;html=1;strokeColor=none;fillColor=none;align=center;verticalAlign=middle;whiteSpace=wrap;rounded=0;" vertex="1" parent="WIyWlLk6GJQsqaUBKTNV-1">
          <mxGeometry x="280" y="310" width="40" height="20" as="geometry" />
        </mxCell>
        <mxCell id="zLQN0CDYQ3AFilHnqqL1-14" style="edgeStyle=orthogonalEdgeStyle;rounded=0;orthogonalLoop=1;jettySize=auto;html=1;exitX=1;exitY=0.5;exitDx=0;exitDy=0;entryX=0.5;entryY=1;entryDx=0;entryDy=0;" edge="1" parent="WIyWlLk6GJQsqaUBKTNV-1" source="zLQN0CDYQ3AFilHnqqL1-7" target="zLQN0CDYQ3AFilHnqqL1-11">
          <mxGeometry relative="1" as="geometry" />
        </mxCell>
        <mxCell id="zLQN0CDYQ3AFilHnqqL1-7" value="Generate refresh token&amp;nbsp;" style="whiteSpace=wrap;html=1;" vertex="1" parent="WIyWlLk6GJQsqaUBKTNV-1">
          <mxGeometry x="240" y="450.0000000000001" width="120" height="60" as="geometry" />
        </mxCell>
        <mxCell id="zLQN0CDYQ3AFilHnqqL1-9" value="YES" style="text;html=1;strokeColor=none;fillColor=none;align=center;verticalAlign=middle;whiteSpace=wrap;rounded=0;" vertex="1" parent="WIyWlLk6GJQsqaUBKTNV-1">
          <mxGeometry x="300" y="380" width="40" height="20" as="geometry" />
        </mxCell>
        <mxCell id="zLQN0CDYQ3AFilHnqqL1-16" value="" style="edgeStyle=orthogonalEdgeStyle;rounded=0;orthogonalLoop=1;jettySize=auto;html=1;" edge="1" parent="WIyWlLk6GJQsqaUBKTNV-1" source="zLQN0CDYQ3AFilHnqqL1-11" target="zLQN0CDYQ3AFilHnqqL1-15">
          <mxGeometry relative="1" as="geometry" />
        </mxCell>
        <mxCell id="zLQN0CDYQ3AFilHnqqL1-11" value="create the access token&amp;nbsp;" style="whiteSpace=wrap;html=1;" vertex="1" parent="WIyWlLk6GJQsqaUBKTNV-1">
          <mxGeometry x="400" y="290.0000000000001" width="120" height="60" as="geometry" />
        </mxCell>
        <mxCell id="zLQN0CDYQ3AFilHnqqL1-13" value="No" style="text;html=1;strokeColor=none;fillColor=none;align=center;verticalAlign=middle;whiteSpace=wrap;rounded=0;" vertex="1" parent="WIyWlLk6GJQsqaUBKTNV-1">
          <mxGeometry x="340" y="280" width="40" height="20" as="geometry" />
        </mxCell>
        <mxCell id="zLQN0CDYQ3AFilHnqqL1-15" value="Check for token validity&lt;br&gt;and Fire APis" style="whiteSpace=wrap;html=1;" vertex="1" parent="WIyWlLk6GJQsqaUBKTNV-1">
          <mxGeometry x="600" y="290.0000000000001" width="120" height="60" as="geometry" />
        </mxCell>
      </root>
    </mxGraphModel>
  </diagram>
</mxfile>
